<?xml version="1.0" encoding="utf-8"?>
<!-- Generator: Adobe Illustrator 24.0.2, SVG Export Plug-In . SVG Version: 6.00 Build 0)  -->
<svg version="1.1" id="image" xmlns="http://www.w3.org/2000/svg" xmlns:xlink="http://www.w3.org/1999/xlink" x="0px" y="0px"
	 viewBox="0 0 850.4 850.4" style="enable-background:new 0 0 850.4 850.4;" xml:space="preserve">
<style type="text/css">
	.st0{fill:#C7C6C6;}
</style>
<g>
	<path class="st0" d="M669.2,710.6l-4.8,1.5c0.4,0,0.4-0.7,0-0.7s-0.4,0.7,0,0.7c-0.7,0.4-1.1,0.4-1.5,0.4c-0.7-0.7-0.7-0.4-1.5-0.4
		v0.4h-0.7v0.7c-1.5,0-1.1-0.7-2.2-0.7h-0.4l0.4,0.7c-0.7-0.7-3,0-3.7,0c-1.5,0-4.4,0.4-5.2,0.7c-0.4,0.7-3,0.7-3.7,0.7
		c-0.4,0-0.7-0.7-1.1-0.7c0-0.4-0.7,0.4-1.5,0.4h0.7c0,0.4-1.1,0.4-1.1,0.4c-0.7,0-1.1,0-1.5-0.4c0,0.7-1.1,0.7-1.5,0.7h-0.4
		c-0.4-0.4-2.2-1.1-2.6-1.1L636,715c-0.4-0.7-1.1-1.1-2.2-1.1l1.5,1.1l-4.4,0.4c0,0-0.4,0-0.4-0.4h0.4c0,0,0-0.4,0.4-0.4
		c-1.5,0-2.2-0.4-3.3-0.4h-0.4c0.4,0.4,0.7,0.7,1.5,0.7v0.4c-0.7,0-1.5-0.4-2.2-0.4c-0.7,0-1.5,0.4-2.2,0.4H622l0.4,0.4
		c0.4,0.4-0.7,0.4-0.7,0c0,0,0-0.4,0.4-0.4c-2.6,0-4.8-0.4-7-0.4c-1.1,0-1.1,0.4-2.2,0.4v-1.1c0,0-1.5,0.7-1.8,0v1.5
		c-1.8,0-6.6-1.5-8.5-2.2h1.1c-1.1-0.4-2.6-0.7-4.1-0.7h1.1c0-0.4-1.1-0.7-1.5-0.7l-0.7,0.4H598c-2.2,0-7-2.2-9.2-3.3h1.1
		c-0.7,0-1.8-0.4-2.6-0.7c0.4,0,0.4-0.7,0-0.7s-0.4,0.7,0,0.7c-0.7,0-1.1-0.4-0.7-0.7c-1.1-0.7-2.2-1.1-3-0.7l-12.5-6.3
		c-4.1-1.1-7-2.6-11.4-2.6c-6.6,0-12.5,3.3-19.2,3.3h-3c-1.5-1.1-4.4-5.5-5.9-5.5c-2.2,8.1-5.2,15.9-5.9,24.3h-0.4
		c0,0.7-0.4,0.7,0.4,1.1l-1.5,12.9c-1.8,0.4-0.7,0.4-0.7,0.7h0.7c0.4,3,0.4,5.2,0.4,8.5v4.1c-0.4,0.7-0.4,0.4-0.7,0.4
		c0,0.7-0.7,0.4,0.7,1.1v4.8l-0.4,0.7v3.3c0,0,1.1-0.4,1.1,0.4l-0.4,0.7v0.4c0,0.7,0.4,3,1.1,3v1.5h0.4l0.7-1.5v2.2
		c0,0,1.5,0.4,1.8,0c6.6-1.8,12.9-9.6,17-14.8h0.4v0.4c0,7.4-12.9,14.8-12.9,20.3c-1.1,0-3.7,3.7-4.1,4.4H529l-2.6,2.6l-1.1-0.7h0.7
		v-0.7c-2.6,0-3,2.2-4.4,2.2c-0.4,0-2.2-0.4-2.6-0.4c0,0.7,1.5,1.1,2.2,1.5h-2.2c0,0,0-0.7-0.4-0.7c-17-10.3-21.4-22.9-21.4-44.3
		c0-17,3-34.7,8.9-50.9l12.5-35.4l44.3-93.7c3.3-9.2,8.9-19.2,14-27.7v-0.4c0-0.4,0-0.7-0.4-1.1l1.5-1.8h1.5v-0.4h1.1l-0.4-0.7
		c1.5,0.4,3.7,1.1,4.8,1.8l-0.4-0.7h0.7c0.4,0,1.5,0,1.5,0.7c0.7,0.4,4.4,1.1,5.2,1.1c0,0.4,0.7,0.4,0.7,0.7H591
		c0.4,0.4,1.1,0.7,1.5,0.7c0.4,0,0.7-0.4,0.7-0.4l0.7,0.7h2.2l-0.4,0.4v0.4c0,0.7,0.4,0.4,0.4,1.8c0.7,0,3,0.4,3,1.8l-0.4,0.4
		c0,0.4,0.7,0.4,1.1,0.7v-0.7c0.4,0,0.7,0.4,0.4,0.4c0,0.4-0.4,0.4-0.4,0.4c1.1,0.4,1.8,1.1,2.2,1.5h-0.7c0,0.4,1.1,2.6,1.5,3.7
		l-0.7-0.4v0.4l0.4,1.1v0.4c0.4,0,0.4,0.4,0.7-0.4v0.4c0,1.1-1.1,2.2-0.7,3.3l-0.7-0.4v0.4c0,0.7,0.4,1.1,0.4,1.8
		c-1.8,18.1-8.1,34.3-15.9,49.8c-0.4,1.8-1.1,3.3-2.2,4.8l-11.1,19.6l-3.3,7h-0.7v0.4c0,1.5-0.7,2.2-1.8,4.4h-0.4
		c0,1.1,0.4,1.5-0.7,1.5c0,1.1-0.7,2.6-1.1,3.3c-0.4,0-0.7,0-0.7-0.4c0,0.4-0.4,0.4-0.4,0.4l0.7,0.4c-0.4,0-0.7,0.4-0.7,0.4
		c0,0.4,0.4,0.7,0.7,1.1l-1.1-0.4v1.1H563l-0.7,0.4l0.4,0.4v0.4c0,0.4-0.7,0.4-0.4,0.7c-0.4,0-0.4,0-0.7-0.4c0,0.4-0.4,1.1-0.4,1.5
		v0.4h-0.4v0.4l-0.4,0.4L560,642c0.4,0,0.7,0.4,0.7,0.4c-0.7,1.8-3,7-4.8,10c-0.4,1.1-0.7,2.2-1.5,3.3l12.9-10
		c0.7,0,1.1-0.4,1.5-0.7l35-25.5l0.4-0.4l86-58.7c2.6-1.8,0.7-2.6,4.4-2.6h2.6c-0.4,0.7,0.7,1.1,1.1,1.1c0,1.1,3,2.2,3.3,3.7
		c0-0.4,0.4-1.1,0.4-1.5c0.4,0.4,1.5,1.1,1.5,1.5c0.4,0,0.4,0,0.4,0.4l-0.4,0.4c1.5,0,2.2,3.3,3.3,3.3l-0.4-0.4v-0.7
		c1.5,1.5,2.6,1.1,2.6,3c1.1,0,1.5,0.4,1.8,0.7c-0.4,0-0.4,1.1,0,1.1V570c0.4,0.7,0.7,1.1,1.8,1.1l0.7-0.4c0.4,0,1.1,0.4,1.1,0.7
		h-0.7c0.4,0.7,1.8,1.1,2.2,1.1v0.4c-0.7-0.4-0.7-0.4-1.5-0.4h-0.4c1.1,0.4,1.8,1.1,1.8,2.2c0,0.4-0.4,2.6-1.1,3.3l1.1,0.4
		c-0.7,0.7-2.2,1.5-3,1.8l-23.2,17c-4.8,6.3-16.6,12.5-23.2,17.7c-1.8,0.4-4.1,3-5.5,4.1l-42.8,28.4l-1.5,1.1
		c-15.1,8.9-31.4,19.6-45,30.3l-1.5,0.7l1.5,1.1c21.4,7.7,38.7,8.9,61.6,8.9c39.8,0,79.7-5.9,119.2-5.9h0.7c-1.5,2.6-7,4.1-10,4.1
		v0.7h-1.5v0.4h-1.1v0.4c0,0.4-6.6,2.2-7.7,2.2v0.7l-11.1,2.2c-0.7,0.7-2.6,1.8-5.2,2.6h0.4c0,0.4-0.4,0.4-0.4,0L712,698h-0.7
		c-3,0.7-6.3,1.1-7.4,1.1c0,0-0.7-0.4-0.7-0.7c-1.1,0.4-7.7,0.7-7.7,2.6l-0.7-0.4h-0.4c-0.4,0-4.8,0.4-4.8,1.1h0.4
		c0.4,0.7,0.7,1.5,1.5,1.5h0.4c-0.7-0.7-0.7-0.7-0.7-1.5c1.8,0,0.7,1.1,2.2,1.1c1.1,0,1.5-1.1,2.2-1.1c0.7,0,0.7,0.7,1.1,0.7
		c4.8,0,9.6-3.3,14-4.1c0.4,0,0.7,0.4,0.7,0.7l-25.8,7.7c0,0-1.5,0.7-1.8,0.7h-0.4l-0.4-0.4c-0.7,0-1.5,0-2.2,0.4v-0.4
		c-0.4,0-0.4,0.4-0.4,0.4h0.4c0.4,0,0,0.4,0,0.4c-0.4,0-0.4-0.4-0.4-0.4c-0.7,0-1.5,0.4-2.2,0.4h2.2c-1.5,0.4-3,0.7-4.4,0.7h-0.4
		c0.4,0,0.4,0,0.7-0.4l-1.8,0.7h0.7c0,0.4-0.7,0.4-0.7,0l-1.1,0.4c0.4-0.4,0-0.7,0-0.7c-0.4,0-0.4,0.7-0.4,0.7l-3.3,1.1v-0.4
		C669.2,710.2,669.2,710.6,669.2,710.6h0.4v0.4C669.2,710.9,669.2,710.9,669.2,710.6z"/>
</g>
<g>
	<path class="st0" d="M120,314.9c10.9-4.6,34.2-9,41.4,2c2.8,4.3-4.5,17.4-2.1,18.8l-1,0c-0.4,0.2-0.2,0.5-0.2,0.5l0.6,0.1
		c0,0-0.4,1.7-0.8,2.7c-2,5.5-6.1,11.9-5.9,17.6l-16.8,42.5c1.2,6.5-8.1,15.1-4.3,20.9c17.3-7.3,46.7-33.7,62.2-46.1l0.4-0.2
		c1,1.5-14.8,29.9-17.4,33.8c0.2,0.3,0,0.8,0.2,1.1l0.8,0.4c-12.7,16.6-17.6,37.4-41.3,47.4c-14.1,5.9-36.4,1-43.6-10
		c-4.2-6.4,1.2-14.5-2.4-20l0.8,0.4l0.4-0.9c0.4-0.9,1.8-5.8,1.6-6.9l11.3-28.9c3.2-6.8,26.9-49.8,24.3-53.8
		c-6.8,2.9-25,19.1-26.4,20.1c-1.8,0.4-4.6,3.1-6.6,4l0.4,0.6c-1.8-0.4-6,1.8-6.2,2.2c-8.4-0.3-16.3-0.5-24.5-2.9
		c0.2-1.3-3.6-1.6-4.4-2.8c-0.6-0.9-0.4-1.4,1.2-2.1c0.8-0.3,1.8-0.4,2.6-0.7l0.4-0.2l16.3-15.8c6.6-4,12.9-9.3,19.3-13.6
		C107.3,323,113.2,317.8,120,314.9z"/>
</g>
<g>
	<path class="st0" d="M712.3,107.5c1.9,0,3.6,0.4,4.7-0.2c8.7-5.3,14.1-16,23.1-21.4l17.1-10.4c1,1.6-0.3,6.9-1.5,8l-2.8,11.4
		c-3.2,13.1-19.8,26.2-30.1,33.1l-0.7,0.8c-0.8,1.2-0.1,18.3,1.1,20.2l0.3-0.2l7.3-8.2c0,0,0.1-0.4,0.4-0.6
		c5.4-5.2,10.4-10.4,16.9-14.4c6.8-4.1,12.7-4.8,20.4-5.7c0.1,0.7,1.1,1.2,1.6,0.9l-0.2-0.3c0,0-0.3,0.2-0.4-0.1l-0.2-0.3
		c4.7,0.5,8.2,1.3,11.4,3.5c-0.3,0.2,0.1,0.7,0.3,0.5l2.1,1.7l-0.4-0.1c-0.3,0.2,0.1,0.7,0.3,0.5c0,0,0.3-0.2,0.1-0.4
		c0.7,1.1,1.6,2,2.4,3.4l1.8,3c4.9,28.3-1.7,80.6-29.7,97.6c-3,1.8-8.1,3.8-11.6,2.9l-4.8-1.2c0.3-0.2-0.2-1-0.5-0.8
		c-0.3,0.2-0.1,0.4,0.1,0.7l-2.2-0.5l1.7-0.3c-1.3-0.3-2.5-0.4-3.7-1.1l0.7-0.1l-1.5-0.6l0.1,0.7l-1.9-0.7l-0.1,0.4
		c-0.3,0.2-0.6-0.4-0.3-0.5c-2-1.4-4.2-3.8-5-5.2c-0.3,0.2-1.2,2.2-1.7,0.3c0.2,0.3,0.7-0.1,0.7-0.1c0.5-0.3,0.8-0.5,0.5-1
		c-0.5-0.8-0.9-0.2-1.7-1.6l0.5-0.3c0.3-0.2-1-3.5-1.2-3.8l-0.3-0.5c-0.2,0.9,0,1.9,0.8,2.5l-1,0.2l0.1,0.7l-0.7-1.1
		c-2.1-3.5-0.4-10.5-1.5-14.7l0.5-0.3c1.8,3,2.6,6.2,4.3,8.9c2.5,4.1,5.8,1,9-1c13.3-8.1,38.6-58.4,29.4-73.6l-1-1.6
		c-17.9,10.9-26.6,23.6-37.2,41.1c-2.1,2.7-3.7,4.9-6.7,6.7c-0.5,0.3-1.1,0.7-1.8,0.7c0.3-0.2-0.5-0.8-0.8-0.7
		c-0.3,0.2,0.2,1,0.5,0.8c-1.3,0.4-2.7,0.5-4,0.2c0.3-0.2-0.1-0.7-0.3-0.5c-0.3,0.2,0.1,0.7,0.3,0.5c-0.7,0.1-1.4,0.1-2-0.3
		c0.3-0.2-0.2-1-0.5-0.8c-0.3,0.2,0.1,0.7,0.2,1c-4.5-1.3-9.3-4.4-11.3-7.6c-3.1-5.2-2.9-9.7-1.9-16l6-33l-0.2-0.3l-0.8-0.7l0.7-0.1
		l-1.3-0.3c0.3-0.2-0.2-1-0.5-0.8c-0.3,0.2-0.1,0.4,0.1,0.7l-0.6-0.4l0.1-0.4c-0.7-1.1-2.3-0.8-3-1.9c-0.3-0.5-0.7-1.1-0.1-1.4
		c-0.3,0.2,0.1,0.7,0.3,0.5c0.3-0.2,0.1-0.4,0.1-0.4c0.7-0.1,1.7,0.4,2.8-0.2c7.1-4.3,0.3-11.7,6.3-15.4c0.3-0.2,0.7-0.1,1-0.2
		c0.2,0.3,0.2,0.3,0.4,0.1l0.3-0.2c-0.3,0.2,0.2,1,0.5,0.8c0.3-0.2-0.2-1-0.5-0.8C711.9,107.4,712,107.7,712.3,107.5
		c0,0,0.3-0.2,0.4,0.1l0.3-0.2L712.3,107.5z"/>
</g>
<g>
	<path class="st0" d="M231.4,795c0,0.4,0,1.1-0.7,1.5c0.7,1.5,2.6,3.7,4.4,4.1c-0.4,5.5,5.5,8.9,5.5,15.1s-2.6,7.4-7,10.7h-2.2
		c-11.8,0-20.7-7-20.7-19.2c0-0.4,0.7-5.2,1.5-5.2h0.7c0-1.8,2.2-2.2,4.1-1.8l-0.4-0.4h0.4c0.4,0,0.4,0,0.7,0.4l0.4-0.4l-0.4-0.4
		C220.7,798.3,228.4,795,231.4,795z M264.9,701.3c-0.7,0.4-0.7,1.5-0.4,1.8c-7,16.2-15.1,34.7-25.8,48.7c-2.6,3-8.9,23.6-10.7,23.6
		c-0.4,0-0.4-1.1-0.4-1.1c-1.1-8.5-1.5-11.4-1.5-17.7c0-10,1.5-19.9,2.6-29.5v-0.4c0-0.7,1.1-7,1.1-7.7v-0.4l31.4-132.8v-1.1
		c0-1.1-0.7-2.2-0.7-3.3c0,0,0.4-0.4,0.4-0.7c1.8-2.6,4.8-4.8,8.5-4.8c2.2,0,4.4,0.4,6.6,0.7c-0.4,0-0.4,1.1,0,1.1s0.4-1.1,0-1.1
		c1.8,0.4,3.7,0.4,5.5,0.4c0,0.7-1.1,1.1-1.1,1.8v0.4l1.8,1.5c-0.4,0-0.4,1.1,0,1.1l-0.4-0.4c-0.4,0-0.4,0.7,0,0.7
		c0,0,0.4,0,0.4-0.4c0.4,0,0.7-0.4,0.4-0.7c1.8,0.7,3.7,1.8,4.4,1.8c1.1,3.7,3,5.2,3,8.9c0,1.5-1.1,3.3-1.1,4.4v0.4l0.4,0.4
		c-0.4,1.8-0.4,4.1-0.4,5.9l-0.4,0.7c0.4,5.9-1.1,12.9-3,18.8c0.4,0,0.4,0.7,0,0.7h-0.4l-1.1,3.7c0.4,0,0.4,0.4,0.4,0.7v0.4
		l-0.7-0.4c0,0.4-0.4,1.8-0.4,2.2l-0.4,0.4c0.4,0,0.7,0.4,0.7,0.7v0.4l-0.7-0.4v3l-1.1,0.4c0.4,0,0.4,0.4,0.4,0.4s0.4,0,0.4,0.4
		c0,3.7-3.3,8.1-4.4,11.8l-8.5,35l-0.4,0.4c-0.4,1.1-0.7,1.8-0.7,2.6c-0.4-0.4-0.4,0.4,0,0.4C267.1,690.6,266.4,695.8,264.9,701.3z"
		/>
</g>
<g>
	<path class="st0" d="M548.7,344.4c0,0,0.4,0,0.4-0.4c0.4,0,0.4-0.7,0-0.7l1.4-1.1c0-0.4,1.1-1.4,1.4-1.8h0.4c2.9,0,5.7,5,6.5,7.9
		c-1.1,5.7-6.8,11.5-10.1,15.8v0.4h14c1.4,0,5.4,1.8,5.4,3.6c0,1.4-1.4,3.2-2.5,3.9c-9.3,3.9-19,5.7-29.1,7.2
		c-1.1,0.4-2.9,1.1-2.9,2.5v0.4c5.4,9.7,9.3,12.9,17.9,22.3v0.4c0,0.4-1.1,1.1-1.1,1.1h-1.8c-9,0-17.2-7.9-22.6-14h-0.4
		c-2.2,0,0,24.4-4.3,24.4c-7.9-4.7-9.3-0.7-11.5-11.8c0,0,0-0.4-0.4-0.4h-0.4l-12.2,8.6H496c-4.7,0-10.1-6.1-10.1-10.8
		c0-7.2,11.8-16.2,15.4-19.4v-0.4c-7.2,0-17.6-2.5-23.7,1.8c-1.1-3.6-5-5-5-9.7c1.1,0,1.1,1.1,2.5,1.1h0.7l32.3-6.1l-12.6-11.8
		c-2.5-2.9-7.5-6.1-7.5-10.4v-0.4c5.7,5.4,17.6,7.5,24.4,12.6l0.4-0.7c1.4-5.7,7.5-15.8,6.8-21.9c1.4,0.4,2.9,0.7,3.9,0.7l6.8,3.6
		c0.4,0.4,1.1,1.1,1.1,1.8c0,0.7,0.4,3.9,0.4,5c0,2.9-0.7,5.7-0.7,8.6c0.4,0,0.4,0.4,0.4,0.4l1.1-0.7l14.7-11.1c0,0,0,0.4,0.4,0.4
		c0.4,0,0.4-0.7,0-0.7l1.1-0.7c-0.4,0-0.4,0.4-0.4,0.7V344c-0.4,0-0.4,0.7,0,0.7C548.4,344.7,548.7,344.7,548.7,344.4z"/>
</g>
<g>
	<path class="st0" d="M573.4,116.7h-1h-0.3c0,0.3-0.3,0.3-0.3,0.3c-2,2.3-22.8,8.4-22.8,9c12.3,10.1,25.6,20,40.7,23.3l25.3,5.3
		c5.4,0.8,7.4,0.8,12.5,0.8c7.2,0,14.6-1.7,21.8-1.7c0,4.2-9.7,6.7-15.1,9.6H634c-1.5,0.8-2.8,1.7-3.3,2.8c0-0.3,0-0.6-0.3-0.8h-0.3
		c0,0.3-0.5,0.3-0.5,0.6l0.3,0.3c-0.3,0-0.8,0.3-0.8,0.6c0-0.8-0.5-0.6-0.8-0.6h-0.5l-0.5,0.3l-0.5-0.3c1.8-0.8,4.1-1.4,5.6-2.5
		h-0.8l0.8-0.3v-0.3c-0.8,0-3.6,0.8-3.6,1.1v0.6c-0.5-0.3-0.5-0.3-1-0.3c-1.3,0-2.8,1.1-4.1,0.8c0.3,0.3,0.5,0.6,0.5,1.1v0.3
		c0-0.3-0.5-0.6-0.5-0.6c-0.3,0-0.8,0.3-1,0.3l-0.5-0.3H622c-3.3,0-6.1,1.7-9.7,1.7h-4.1c0,0,0,0.3-0.3,0.3s-0.3-0.3-0.3-0.3
		c-4.6-0.3-11.3-0.8-11.3-1.7c-0.5,0-8.4-0.8-9-2l-0.3,0.3c-0.3,0.6-4.1-0.6-7.2-1.4h-0.3c0-0.3-0.3-0.3-0.3-0.3
		c-1.8-0.6-3.3-1.1-3.3-1.7l-0.3,0.3h-0.3l-0.5-0.3c-0.3,0-0.5,0.3-0.8,0.3c0-1.4-2-0.8-2.3-1.7l-0.3,0.6c0,0-0.8-0.6-1-0.8
		c-0.5-0.3-1-0.3-1.5-0.8l-0.3,0.6c-0.3-0.6-1-1.7-1.3-1.1l-0.3,0.3c0-0.6-8.2-5.3-9-5.3v0.3c0,0.3,0,0.3,0.3,0.6
		c-1.3-0.6-2.8-1.7-3.8-2.8c-0.3-0.6-4.6-3.7-4.6-3.7c-2-1.4-3.8-3.1-5.6-4.5l-14.6-12.4l-0.5-0.3c-0.3,0-0.5,0.8-0.5,0.8l-0.8-0.6
		v0.3c0,0.6,0.5,0.6,0.5,0.8h-0.5v0.8l-0.5-0.8v0.8c0,0.3,0,0.8,0.3,1.1l-0.5-0.3v0.3l0.3,0.6c0,0.3-0.3,0.6-0.3,0.8l-0.5-1.4h-0.3
		v0.3c0,0.3,0.5,1.4,0.5,1.7l-0.5-0.6v0.3c0,0,0.3,0.8,0.5,0.8l-0.5-0.3c0.3,1.1-1,3.1-1.3,3.9l-0.5-0.6l-0.3,0.3l0.5,0.6v0.6
		c0,0.3,0,0.6-0.3,0.8c1,0.8,1.3,2.2,0.3,3.4l-0.8,0.6c-4.1,10.7-7.4,19.4-7.9,31.2c0.3-1.1,0.5-2,0.8-2v1.1c0,1.7-0.5,3.7-0.8,5.6
		v3.7c-0.3,0-1-0.6-0.8-0.3l-0.3,0.6v2.2c1.5,0,2.6-2,3.8-2c0,5.1-6.9,9.6-10.8,10.4v-0.6c-0.8,0-0.8,0.8-1.3,0.8v-0.8
		c-4.1,0-7.4-3.4-9.7-7.6h0.3c0.8,0,1,1.4,1.5,2v-0.6c0-0.8-1.3-2.3-1.8-2.5c0.3,0,0.5,0.3,0.8,0.3c0.3,0,0.3-0.3,0.3-0.6
		c0-0.3,0-0.6-0.3-0.8v0.8c-0.5,0-0.5-1.1-0.8-2l-0.3,0.3c-0.3,0-0.3-0.6,0-0.6c0-0.3-0.3-0.8-0.3-1.1v3.4c-0.5-1.4-1-3.7-0.8-5.3
		l-0.3,0.3c-0.3-0.8-0.5-1.7-0.5-2.5c0.8,0,3.1,5.6,3.3,6.2v-0.3c0-0.8-0.5-1.7-0.8-2.5c0.3-0.3,0-0.6-0.3-0.6c-0.5-1.1-1-2.2-1-3.4
		c0-1.4,0.3-2.5,0.3-3.7c0-2.8-0.8-5.6-0.8-8.2c0-1.7,1.5-3.7,1-5.3c1.3-5.6,3.1-11,4.4-16.6l8.2-24.7v-0.3c0-0.6-0.3-0.8-0.5-1.1
		l-4.4-8.4h0.3c1,0,2.3,4.8,3.6,5.6c-1-3.1-3.3-5.1-4.1-7.9h-0.3v0.6c-0.8-0.8-2.3-3.1-2.3-4.5c0-3.4,3.1-7.3,6.4-7.3
		c2.3,0,6.7,2.2,8.4,3.4h0.3l0.3-0.3l9.7-23.1c-0.5-1.1,2.3-3.9,2.3-5.6c0,0,0-0.3-0.3-0.3h0.5l0.3-0.3c0-0.3-0.3-0.3-0.3-0.6v-0.3
		c2-7.6,8.4-19.4,10.5-23.9c0.5-2.2,2.3-7.3,3.3-9.6c-7.7,0-15.1,18.8-21.8,18.8v0.3l-5.6,6.7c-0.3,0.3-0.5,0.8-1,1.1l-5.6,8.4
		c-0.8,2.5-2.8,4.2-3.3,6.7c0,0.3,0.3,1.7,0.3,2c0,2.3-2,4.5-2.6,6.5c0,0.3,1.5,1.7,1.5,2.5c-0.3,0.6-1,2.5-1,2.8
		c0,0.3,0.3,1.7,0.3,2v0.3c-0.8-0.6-1.3-1.1-2.6-1.1v-0.3c-0.3,0-0.5-0.6-0.5,0.6l0.3,0.6l-1-0.6l0.3-0.3c-0.5-0.3-0.8-0.6-1.3-0.6
		c-0.3,0-0.5,0.3-0.8,0.8c0.5-0.3,1,0,1.3,0.3h-0.8c-1,0-1.5-0.6-2-1.7v1.1c-0.3-0.3-0.8-0.8-0.5-1.4c-0.5,0.3,0,1.1-0.5,1.4
		l0.5,0.6l0.3-0.3c0.3,0,0.5,0.3,0.5,0.3c-0.3,0.3-0.5,0.3-0.8,0.3h-0.3l-2.6-2.8c0.3-0.8-1-3.4-2-3.4V88c0.3,0,0.8,1.1,1,1.1v0.3
		c-1-0.8-2-2-2.3-3.4h-0.3l-1-1.1l0.5,0.3l-1.3-2c0.3,0.3,0.5,0.6,0.8,0.6c0.3,0,0.3-0.3,0.3-0.6c0-0.6,0-0.8-0.5-1.1v0.3l0.3,0.6
		v0.3c-0.5,0-1-1.1-1.3-2v0.3c0,0.6,0,0.8,0.3,1.1c-1-1.1-1.8-2.8-1.8-4.2c0-5.1,14.1-27,17.4-28.4c4.9-5.6,12.5-10.7,17.2-16.9
		C539,19.7,559.8,9,581.8,9c10.8,0,21.8,2.3,31.2,7.9c1.3,0.8,2.3,1.7,3.3,2.8h0.3l0.5,0.8c0,0,0,0.3,0.3,0.3h0.3
		c0,0.3,0,0.3,0.3,0.3c0.8,0.6,1.5,1.1,2.6,1.4c1.5,1.1,3.3,3.4,4.6,5.1l-1-0.8c0.3,0.8,1,1.4,1.3,2.2v-0.6c0.3,0.3,0.5,0.6,0.5,0.8
		c-0.3,0-0.3,0.6,0,0.6h0.3v0.6l0.3,0.3c0,0.3,0,0.6,0.3,0.6s0.3-0.3,0-0.6c1.5,0.8,3.3,3.9,3.1,5.1c0,0,0.3-0.3,0.5-0.3
		c0,0.8,0.3,1.4,0.3,2.2h0.8c0,0.3-0.3,0.6-0.5,0.6l0.8,0.3l-0.8,0.3c0.8,0.6,1,1.4,1.5,2l0.3-0.3v0.8H632l0.3,1.7l0.3-0.3l0.3,0.8
		l-0.3-0.3c-0.3,0-0.3,0.6,0,0.6c0,0,0.3,0,0.3-0.3v0.3l-0.3,1.1l-0.3-0.3v1.4c0.3,0,1-0.3,1-0.3c0.3,0,0.3,0.3,0.3,0.3v1.4
		c-0.3-0.8-1-1.1-2-1.1l1.5,0.8h-1c0.3,0.8,1,0.8,1.5,0.8v0.3h-1.3v0.3c0.3,0,1.3,0,1.3,0.8c0,0.3-0.3,0.6-0.3,0.8l-0.5,4.5
		l-0.5-0.3v0.3l0.3,0.3c0,0.3,0,1.1-0.3,1.4v-1.1c-0.8,1.4-1.3,3.1-1.8,4.8l-0.5-0.6l0.3,0.8v0.3c-0.8,0-1,1.7-1,2.2
		c-0.3,0.6-2.6,2.5-2,3.1l0.3,0.3c-1,0.3-1.3,1.7-2,2.2h0.5c0.3,0,0.5,0,0.8-0.3l0.3,0.6l-0.3,0.3c0,0-0.3,0.3-0.3,0.6
		c-0.3,0-0.3-0.6-0.8-0.6c-0.3,0-0.8,0.3-0.8,0.8c0,0.3,0.5,1.1,0.8,1.4c-0.8,0.3-2,0.6-2,1.1h1c0,0.8-1.3,0.6-1.5,1.1l0.8,0.3h-1
		l0.3,0.8c-1.3,1.1-1.5,0.6-1.8,2.8h-0.5v-0.8c-0.3,0-1.5,0.8-2.3,0.8h1.3c0,1.4-1.5,1.4-1.5,2.2c0.3,0,0.5,0.6,0.8,0v0.6h-1.8
		l-0.5,0.6c0,0.3-0.3,0.6-0.3,0.8c-2.8,4.2-6.7,8.7-11.3,12.9h0.3c0,0.6-0.3,0.6-0.5,0.6h-0.3l-4.6,3.9c0,0.3-0.5,0.8-1,0.8
		l-6.1,5.1l-0.3,0.3l-7.4,5.1c0,0,0,0.3-0.3,0.3l-4.1,2.5h-0.3c-2.3,1.4-4.4,2.2-6.1,3.1C573.9,116.7,573.6,116.7,573.4,116.7z
		 M550.8,76.2c-4.1,8.2-8.2,15.2-9.5,18.6c-1.3,3.1-2.3,9-3.8,13.8c12.3-0.3,23.6-12.4,34.3-17.2C586.9,81,615.1,63.5,615.1,41
		c0-3.1-0.5-4.5-1.3-7.3c-4.4-3.1-5.4-7.3-11.3-10.1h-0.3c-0.3,0-1.5-0.6-2.3-0.8h1c-2-1.7-5.9-2.2-7.9-2.5h-0.3
		c0,1.1,4.9,1.1,6.1,2.2h-0.3c-5.1-1.4-9.2-2-14.3-2c-13.8,0-26.4,6.2-38.2,13.8l0.3,0.6c0.3,0,0.8-0.3,1-0.3h1.3
		c0.8,0,1.5,0.3,2.3,0.6c0.3,0.3,0.8,0.6,1,0.6c0.5,0.3,1.3,0.6,2,0.6c0.3,0,0.5-0.3,0.8-0.3c-0.8-0.6-1.5,0-2-0.8h0.3
		c0.5,0,0.8,0.6,1,0.3c1.5,0.8,6.1,2.2,7.2,4.2h-0.3c0-0.3-0.8-0.6-0.8-0.8H560c0.8,0.8,1.5,1.4,2.6,2v-0.6c0.5,1.1,1.8,2,1.8,3.4
		v0.3l-0.3-0.6v1.1c0,0-0.5-0.3-0.5-0.6l0.3-1.1c0-0.6-1-0.6-1.3-1.4v1.1c-0.8,0-1,0.6-1.5,0.6v-0.3c0,0-0.3-0.3-0.3-0.6v1.7h0.8
		l-0.8,0.3v0.3c0,0.6,0.3,1.1,0.5,1.4c0.5-0.3,0.8-0.6,1.3-0.6c-0.3-0.3-0.3-0.6-0.3-1.1h0.3c0,0.3,0.3,0.6,0.3,0.8l0.5-0.8v1.4
		c0.5,0.3,1,1.1,1,2.2c-0.8,3.4-4.1,5.3-5.1,8.4c-2,6.2-4.9,12.7-7.7,18.3c-0.3,0.3-0.3,1.1-0.5,1.4c0,0-0.3,0.3-0.3,0.6V76.2z"/>
</g>
<g>
	<path class="st0" d="M628.3,425.5c0-11.6,8.2-22.1,15.3-30.3c4.1-4.5,13.1-14.2,13.5-14.2l0.7,0.4v-0.7c0-4.9,13.1-12.7,18.7-12.7
		c9.7,0,20.6,7.5,28.4,12h0.4c3.7-2.2,13.5-10.8,15-12.7h2.6c3.7,0,11.6,1.1,11.6,6c0,3.7-1.9,7.9-3.4,10.8L708,430.4h-0.7v0.7h-0.4
		c0,1.5,0,2.6-1.1,2.6c0,1.5-1.1,6.4-2.6,6.4h-0.4c0,1.1,0.4,0.4-0.4,1.9c-1.5,3.7-5.2,11.6-5.2,11.6h-0.7c0,7.5-7.1,13.8-7.1,21.3
		v0.4c-0.4,0-0.7-0.4-1.1-0.4l-0.4,0.4c0.7,0.4,0.4,1.1,0.4,1.5v1.1c-0.4-0.4-0.7-0.4-1.1-0.4v-0.4l0.4-0.4V476l-0.7,0.7v2.2
		l-0.7-1.5v1.1c0,0.7,0,1.1,0.4,2.2c-0.4-0.4-0.7-0.4-0.7-0.4c-0.4-0.4-0.4,0-0.4,0l-0.4,0.4c0.4,0,0.4,1.1,0.7,1.5l1.1-1.5v0.4
		c0,1.1-0.4,1.9-1.1,1.9l-1.1-1.5c0,0.7-1.1,3.7-1.1,4.5v0.7c0,0.7,0,1.1,0.4,1.9l-0.7-0.4c0,0-0.4,1.5-0.4,1.9
		c-0.4,1.5-1.5,7.1-1.5,9.7v-4.1c-0.4,0.7-1.1,4.1-1.1,5.2c0,0.7,0,1.1,0.4,1.9l-0.7-0.7c0.4,2.2,0.4,4.5-1.1,6.4
		c0,0.4,0.7,2.2,0.7,2.6v1.1l-0.4-0.7c0,2.2-0.4,4.1-0.4,6.4c0,0.7,0.7,0.7,0.7,1.5c0,3.7-2.2,7.9-3.7,10.8
		c-1.5,1.1-2.6,1.5-4.1,1.5c-0.4,0-1.9-0.4-2.2-0.4c0-0.7-0.4-1.9-0.7-3v1.9l-0.7-0.4v0.4l0.7,0.7c-9-3.4-10.1-17.2-10.1-24.7
		c0-29.5,15-57.2,28.8-81.9v-0.7c-7.9,9-22.4,25.4-37,25.4h-1.1c0.4,0,0.4-0.7,0-0.7s-0.4,0.7,0,0.7c-2.6,0-4.5-1.1-6.4-2.2
		c0.4,0,0.4-1.1,0-1.1s-0.4,1.1,0,1.1c-0.4,0-0.7-0.4-1.1-0.7c0,0.4,1.1,1.1,1.1,1.5v0.4c-3-2.2-3.7-1.5-3.7-4.1h-0.4
		c0.4,0,0.4-0.7,0-0.7s-0.4,0.7,0,0.7C632.1,443.5,628.3,430.8,628.3,425.5z M654.1,421.4h0.4c3.7-1.9,8.2-4.5,10.5-7.5l18.7-15
		c3.4-3.7,13.1-7.5,13.1-11.6c-0.7-0.4-2.2-0.4-3-1.1h1.5c-0.4-0.4-1.9-0.4-2.6-0.4c-4.9,0-8.2,3-12.3,6
		C670.6,400.8,661.2,410.2,654.1,421.4z"/>
</g>
<g>
	<path class="st0" d="M386.4,604.4h-0.2c1.7-6,4.2-14.6,8.2-14.6c0-6.2,12.2-14.9,22.8-19.6c0,0.2,0,0.5,0.2,0.5s0.2-0.7,0-0.7
		c4.7-2,9.4-3.2,12.4-3.2c1.2,0,2,0,3.7,0.2c0,0.2,0.2,0.2,0.5,0.2h0.2l-0.2-0.2h0.2l2,2c0.7-0.7,0.5,1.2,1.2,0.5l-0.5-0.7h0.2
		c0.2,0,1.5,0.7,1.7,0.7l0.2,0.2h-0.5c0.2,1.2,0.7,1.7,2,1.7h0.5c-0.2-0.7-2.2,0-2-1.2c0.2,0,1.5,0.5,2,1c0-0.2,0-0.5,0.2-0.5
		s0.2,0.5,0,0.5c0,0.2,0.2,0.2,0.2,0.2l-0.2,0.5c0.5,0.7,1,1.2,1.7,1.2h0.5c-0.7-0.7-1.7-1.7-2-2.5c1,0.7,2,2,2.7,3h-0.7
		c0,1,1.5,1.2,2,2.2c-0.2,0.2-0.2,0.5,0.2,0.5l0.2,0.2h-0.2c-0.2,0.2,0,1,0.5,2c0,0,0,0.2,0.2,0.2l1.5,3.5c-0.2,0.2-0.2,0.7,0.2,0.7
		v-0.5l-0.2-0.2h0.2v0.2v0.5c0.2,0.2,0.5,0.5,0.5,0.7c0-0.2-0.2-0.2-0.2-0.5c-0.5,3.2-2.2,6.9-2.2,10.2c0,0.5-0.2,1,0.2,1.2
		c-0.2-1,0.5-1.7,0.2-2.7l0.5,0.2c-0.2-1.2,0.5-2.5,0.7-3.7h-0.2c-0.2,0-0.2-0.5,0-0.5s0.2,0.2,0.2,0.5c0.2-0.7,0.5-1.5,0.5-2.5h0.2
		c-0.2,0-0.2,0.5,0,0.5s0.2-0.5,0-0.5h0.2c0,1.2-0.5,2.5-0.7,3.7c-0.5,0-0.5,0.7-0.2,0.7c-0.2,1-0.5,2-0.2,2.7l-0.5-0.2
		c0.5,2-1.5,5.2-2.5,7.4c-0.5-0.2-0.5-0.5-0.5-1c0-0.7,1-1.5,1-2.2c0.2,0-0.2-0.5-0.2-0.5v-0.2h0.7l-0.5-1c0,0.2-0.2,0.5-0.5,0.7
		c0,0.5-1,2.7-1,3.2l-0.2,0.5v0.7l0.5-0.7c0.2,0.2,0.5,0.7,0.5,1v0.2l-1.2,3v0.2l-0.7-0.2c0.2,0.7,0.2,1.2-0.2,1.7l-0.2,0.2l-1-0.7
		c-0.2,0-0.7,1-1,1.2l0.2,0.2c0.2,0,0.5-0.7,0.7-0.7h0.2c-0.2,0-0.2,0.5,0,0.5s0.2-0.5,0-0.5l0.5,0.2c0,0.5-0.2,1.2-0.5,1.7
		c-1,1.5-3.2,5.2-3.5,5.2h-0.5v0.2h0.5c0,0.5-1,1.7-1.2,2.2l-0.5-0.2c0.2,0.7-0.5,1.7-1.2,1.7v0.5c0,0-0.2,0.5-0.2,0.7l-0.5-0.2v0.7
		l-0.2,0.2h-0.2c0.2,0,0.2,0.5,0,0.5s-0.2-0.5,0-0.5c-0.2,0-0.7-0.2-0.7-0.2c0.2,0,0.5,0.5,0.5,0.5l-0.5,0.2v1.2
		c0,0-0.2-0.2-0.5-0.2l-0.2,0.2l0.2,0.5l-0.5-0.2c0,0.2,0.2,1.5-0.5,1.5c0-0.2-0.5-0.5-0.5-0.7c-0.2,0-0.2,0.2-0.2,0.2h-0.2l0.7,0.7
		c-0.7,0.2-1.5,1-2.2,2.2v-0.5c-0.2,0-0.2,0.5,0,0.5l-0.2,0.2c-0.2-0.2-0.2,0.2,0,0.2c-1.2,2-2.5,4.7-3.5,5.5l-0.5-0.5v0.2l0.2,0.5
		c0,1-1,2.5-2,2.5c0,0,0.2,0.2,0,0.2c0,0.2-0.2,1.2-0.5,1.5l-0.2-0.2c0.2,0,0.2-0.7,0-0.7c-0.2,0-0.2,0.7,0,0.7h-0.2
		c-0.2,0-0.2,1-0.5,1.2l-0.5-0.2v1.2l-0.7-0.5v1l-0.7-0.5v0.2l0.2,0.5c-0.2-0.2-0.7,0-1,0.2l0.2,0.2l-0.2,0.2
		c-0.2,0.5-1.2,1.7-1.2,2.2c-0.2,0-0.7,0-0.7,0.2s0.2,0.5,0.2,0.5c-1.2,1-2.7,2.5-3,4l-0.5-0.2v0.2c0,0,0,0.5,0.2,0.5l-0.7-0.2
		c0.2,0.7-0.5,0.7-0.2,1.5c0-0.2-0.2-0.2-0.5-0.2s-0.5,0.7-0.5,0.7c0,0.5,0.5,1.2,0.7,1.7h-0.5c1,0.5,1.5,1,2.2,2l-1.2-0.5
		c0.2,0.7,1,2,1.5,2.2v-0.5l2.2,3.5c0.2,0.5,1.2,3.2,2,3.2c2.2,0,4-4.2,5.7-5.7v0.2l-2,4l0.2,0.2c0.2-0.2,0.5-1,1-1.2
		c0,2.2-2,4.2-2,6.5c0,3.7,7.4,5.2,7.4,9.7l0.5-0.2h0.2l0.2,0.2c0.2,0,0.5-0.2,0.7-0.2c0.5,0.2,1.2,0.7,1.7,1.5l0.2,0.2l0.5,1
		l0.2-0.2c0,0.2,0.7,1,1,1l0.2,0.2c0.2,0,0.5,0,0.5-0.5c3,2.5,9.7,6.9,11.2,7.7c1,0.7,2.5,1,3.5,1l0.2,0.2c0.2,0,1.5,0.5,1.7,0.5
		v-0.2c1.5,0,4.5,1.5,4.5,3.2v0.7c-1-1.2-0.5-1.7-2-2.2v0.2l0.5,0.7c0.2,0.2,0.2,0.5,0.2,0.5c0,0.2,0,0.2-0.2,0.2l1,1v0.2
		c-0.5-0.2-0.5-0.2-1-0.2c-0.2,0-0.5,0-0.7,0.5l0.2,0.2h-0.2l-0.5-0.2c-4.5,0.2-2.7-0.2-5.5-0.2l1,0.5h-0.7c-0.7,0-3.7-0.5-4.5-0.5
		c0-0.2-0.2-0.5-0.2-0.5h-0.2l-0.2,0.2h-0.2c-0.7,0-6.7-1.2-6.7-2c-1.2-0.2-2.2-0.2-3.5-0.2c0-0.2,0.5-0.5,0.7-0.5
		c-0.2-0.5-0.5-0.5-0.7-0.5s-0.5,0.5-0.7,1c0.2-1.2-1.2-1-1.7-2l-0.7,0.5c0.2-0.5-1.2-1.7-1.5-1.7L428,685c0.2,0,0.2,0.7,0.5,0.7
		v0.2l-1.2-1.2L427,685c-0.7,0-2.2-0.5-2.5-1.5c0,0.2-0.2,0.5-0.2,0.5h-0.2c-0.2,0-0.7-0.2-1.2-0.5c0.2,0.5,0.2,1.5,0,1.7v-1.7
		c-1.5-0.5-4-1.2-4.2-1.7l-0.5,0.5c0-0.2-0.2-0.5-0.2-0.7v-0.2l0.2-0.2h-0.5c0,1.2-0.7,2.7,1,2.7v0.5c-2.5,0-1-3.7-2.5-4.2
		c-0.2,0-0.5,0.2-0.7,0.2c-1.7,0-3-1.7-4.2-2.5c-0.2,0-0.2,0.2-0.2,0.2c0,0.7,0.5,1.2,1.2,1.7l0.2-0.5c0.2,1.5,2.5,2.5,3.7,2.5
		c0,0.2-0.7,0.5-1,0.5h-0.2l-2.5-1.7v0.5c-0.7,0-1.2,0-2-0.2l0.2,0.5h-0.2c-0.2-0.2-2-1.7-3-1.7c0,0.2-0.2,0.2,0.2,0.5
		c-0.7,1.5-3,4.7-4.7,5l0.7-0.7V684c-0.2,0.2-0.5,0.2-0.7,0.2c0,0-0.5,0-0.5-0.2l0.5,1h-0.2v0.7l-5.5,5.7H397l-0.5-0.2
		c0,0.2,0.2,0.5,0.2,0.5v0.5c-1.2,1-3.7,4.2-5.5,4.2c0,0.7-0.5,1.5-1.2,1.5v-0.5l-0.7-0.2v0.2l0.5,0.7c0,0.2-0.5,0.5-0.5,0.5
		c-0.2,0-0.7-0.5-1-0.5h-0.2l0.7,0.7l-0.5,0.2c0-0.2-0.2-0.5-0.5-0.7c-0.2,0.7-1.2,0-1.2,0.7c0,0.2,0.2,0.2,0.2,0.7v0.2l-0.7-0.2
		h0.2c0.2,0,0.2-0.7,0-0.7c-0.5,0-0.5,0.5-0.2,0.7l-0.5-0.2v0.2c0.2,0,0.5,0.5,0.7,0.5c-0.5-0.2-0.7-0.2-1.2-0.2
		c-0.2,0-0.5,0-0.7,0.2v-0.2c-0.2,0-0.2,0.2-0.2,0.5c-0.2,0.2-0.7,0.5-1,0.5v0.5l-0.5-0.2c0,0.2,0,0.7-0.2,1l-0.2-0.7
		c0,0.2-0.2,0.5-0.2,0.7h-0.2c-0.2,0-0.5-0.2-0.5-0.2v0.7c0-0.2-0.2-0.5-0.5-0.5c-0.7,0-3,1-4,1.2c0-0.5,0.5-0.5,0.7-0.7h-0.2
		c-0.7,0-1.2,0.2-2,0.2h-0.2c0.5-0.7,1-0.5,1.7-1h-1.2c0.2-0.7,1.2-0.7,1.7-1h-0.2c-1,0-1.7,0.5-2.5,1l0.5,0.5h-0.5
		c-1.2,0-1-1.2-1-2c-1,0-2,0.2-3,0.2h-0.7l-0.2-0.5h-0.2c-0.2,0-0.2,0.2-0.2,0.2l0.2,0.2H369c-2.2,0-3.2-4-4.7-5.5
		c0.2,0,0.2-0.5,0-0.5s-0.2,0.2-0.2,0.2s0-0.2-0.2-0.2c0,0,0-0.2-0.2-0.2s-0.2,0-0.2,0.2h-0.5l-1.7-3.5v-0.2l1.7,2.5h0.5l-0.5-0.7
		c-0.5-1.2-2-4.2-2-4.5v-0.2l0.7,0.5v-5.2c0-1.2,1-3.2,1.7-4.2l0.2,0.7v-1.5l0.7,0.2v-0.2l-0.2-0.5c0,0,0.2,0.2,0.5,0.2
		c0.5,0,0.2-0.5,0.2-0.5h-0.2v-0.2c0.2-0.7,1.2-3.2,2-3.2c0,0,0.5,0.2,0.5,0.5c0-0.2-0.2-0.5-0.2-0.7v-0.2l0.5,0.2l0.2-0.5v-0.2
		l-0.5,0.2v-0.2c0,0,1.2-2.2,2-3c0.2-0.5,0-0.2,0.5-0.2v-0.7l16.9-22.8c0,0,0-0.5,0.2-0.7v-0.2c-0.2-0.2-0.5-2-0.7-2.2
		c0-0.2,0.2-1-0.2-1.2c-0.2-6-2-11.2-2-17.4c0-2.7,0-4,0.5-6.7h0.2c-0.2-0.2-0.2-0.7-0.2-1c0,0,0-0.2,0.2-0.2
		c-0.2-1.7,0.2-2.2,0.5-4c-0.5,0-1.2,0-1.2-0.7h0.5c0-0.7,0.2-1.7,0.2-2.7l0.5,0.5v-0.2c0-0.2,0-0.2-0.2-0.5l0.7-2.2h0.2
		c0.2,0,0.2-0.5,0-0.5c0-0.5,0.2-1,0.2-1.5h0.5C386.6,604.9,386.6,604.4,386.4,604.4z M393,674.8h-0.2l-3.2,4v0.2h-0.5
		c0,1-1.7,2.5-1.7,3.2c2.7,0,12.2-6.4,14.1-9.2c-1.2-1-1.7-2.5-2.7-3.2v1h-0.5c-0.5,0-0.7,0-1-0.2c-0.2,0.2-0.5,0.7-0.2,1
		c-0.5-0.5-1-0.2-1.2-1l-0.2,2l0.2,0.2c0.2,0,0.5,0.2,0.7,0.2c-0.2,0.5-0.7,1-1.5,1.2l-0.2-0.5c0,0.2-0.2,0.7-0.2,1h-0.2
		c0-0.2-0.2-0.2-0.2-0.5h-0.2C393.3,674.3,393.3,674.8,393,674.8c0.2,0,0.2,0.5,0,0.5S392.8,674.8,393,674.8z M414.9,590.3l0.2,0.2
		v0.2c-0.2,0.2-2.5,3-2.7,3l-0.5-0.2l0.2,0.5v0.2c0,0.5-1,2-1.7,2.2l-0.5-0.2v0.2l0.2,0.2c-4,8.9-7.4,16.1-7.4,26.3v2.7
		c0.2-0.5,1-0.7,1.7-1.2l0.7-0.5l17.9-22.6c4-6,11.4-13.9,11.4-21.3v-2.2c-2.7,0-6.4,2-8.4,3.2c-0.5,0.7-2.5,1.2-3.2,2l0.2,0.2
		c-0.5-0.2-0.7,0-0.7,0.5h-0.5c0.2,0,0.2,0.5,0,0.5s-0.2-0.5,0-0.5c-0.5,0-1,0.2-1,0.5h0.2c0.2,0,0.2,0.5,0,0.5h-1l0.2,0.2
		c0,0.2,0,0.5-0.2,0.5c0,0-0.5-0.2-0.5-0.5l0.2,0.7c0,0-1.5,1.7-2.2,2.5l-0.2,0.2l-0.7-0.2c0.2,0,0.2,0.2,0.2,0.2v0.2l-1.5,1.2
		l-0.5-0.2v0.2c-0.2,0-0.2,0.7,0,0.7S415.1,590.5,414.9,590.3z M445.9,575.9v0.2c0,0-0.2,0-0.2-0.2H445.9z"/>
</g>
<g>
	<path class="st0" d="M268.5,288.8c-0.4,0.1-1.7,0.8-1.8,1c-0.2,0.1-0.5,0.4-0.5,0.4l-0.2,0.1c-0.5-0.1-1,0.3-1.2,0.4
		c-1.8,0.6-3.4,1.5-5.2,2.1l-0.1-0.2c0.8-0.2,2.6-0.8,2.4-1.4l-3,0.9l0.1,0.2c-0.5-0.3-0.7,0-1.1-0.1l-3.3,1
		c-2.4,0.5-10.5-1-11.3-0.1c-9-1.9-18.1-9-20.9-17.9l-2.5-7.9c-0.2-0.6-0.3-1.6-0.2-2.1l0.3,1l0.1-0.3l-0.6-2
		c-0.5-2.4,0.5-5.3-0.5-7.8l0.5,0.1c-0.4-4.8,1.2-9.4,1.4-14.1c2.2-10.8,5.9-21.3,11.2-31.1c0.1-0.5,0.5-1,0.9-1.2l0.1,0.4
		c0.6-0.2,0.1-0.9,0.3-1.2c0.2-0.1,0.5,0.1,0.7,0c0.3-0.3,2.4-4.2,2.3-4.4l0.6-0.2c-0.2-0.6,0.9-1.2,0.8-1.7l0.2-0.1l-0.3-0.3
		l0.5,0.1c0.1-0.3,0.3-1,0.5-1c0,0,0.4-0.1,0.5,0.1c-0.6-0.7,0.9-1.2,1-1.6l-0.3-0.1c0,0-0.1-0.2,0.1-0.3l0.5,0.1l0.1-0.9l0.5,0.1
		c0.2-0.1,0.1-0.3,0.1-0.3l-0.3-0.1c0.5,0.1,1-0.3,1-1l-0.3-0.1c0.5,0.1,1.5-1.3,1.7-1.4c-0.3-0.3,0.3-0.5,0-0.7l0.5,0.1
		c-0.6-0.5,0.1-1.1,0.5-1.2l0.2-0.1l0.3,0.1c0,0,0.4-0.1,0.3-0.3l-0.3-0.3l0.6-0.2l-0.3-0.1l1.2-0.4l-0.7-0.2
		c0.1-0.5,0.3-0.3,0.7-0.4l-0.1-0.2c0.4-0.1,0.7-0.4,1.1-0.8L247,191l-0.1-0.2c0.2-0.1,0.3-0.3,0.3-0.3c0.2-0.1,0.5,0.1,0.7,0
		l-0.1-0.2l0.4-0.1l-0.3-0.1l-0.1-0.2c-0.1-0.2,0.3-0.3,0.3-0.3l0.7,0l0.2-0.1l-0.5-0.3c0.1-0.3,1.3-1.5,1.3-1.5l0.5,0.1
		c0.2-0.1,0.3-0.3,0.3-0.5l1.4-0.4l-0.2-0.8l0.3,0.1l0.5,0.1l0.4-0.1l0.7-0.4l0.2-0.1l0.3,0.1c0.1-0.5,0.9-0.7,1.3-0.8l0.2-0.1
		l0.5,0.1c0.2-0.1,0.3-0.3,0.3-0.3l-0.3-0.3c0.1-0.3,0.4-0.1,0.7-0.4c0.6-0.2,2-1.1,2-1.1l-0.1-0.2l0.5,0.1l0.2-0.1l-0.1-0.4
		c4.1-1.3,7.6-3.9,11.8-5.2l1.8-0.6l-1.5,0.9l1.8-0.6c-0.7,0.6-0.1,0.3,0,0.7l2.4-0.7c-0.3-1-1.4,0.2-2.2-0.2l0.8-0.2
		c0.6-0.2,1.2-0.2,2-0.4c0.1,0.2-0.1,0.3-0.1,0.5l0.1,0.2c0,0,0.3,0.1,0.5,0.1l0.2-0.1c-0.3-0.1-0.5-0.3-0.6-0.7l2.8,0l-0.2,0.1
		c-0.6,0.2-1,0.1-1.6,0.3l-0.2,0.1c0.9,0.1,2,0,2.7-0.2l-0.1-0.2l0.4-0.1c0,0,0.3,0.1,0.5,0.1l-0.1,0.3c8.8-4.9,25.7,2.8,28.6,12.2
		c3.9,12.6-1.9,62.3-18.2,67.4c-9.4,3-17.5-3.6-20.2-12.2c-0.8-2.6-0.6-5.4-1.4-7.8l-0.1-0.4l-0.1,0.3l-0.6,1.7l-4.7,12.7
		c-2.1,5-5.1,12.8-11.2,14.7l-1.2,0.4c0.2-0.1,0.6-0.2,0.5-0.4c-0.3-0.1-0.5-0.1-0.6,0.2l0.1,0.2c-5,0.7-10.6-3.6-12.1-8.3
		c-2.9-9.2,9.5-43.6,17.2-46c0.6-0.2,0.8,0,1.4-0.2l0.2-0.1c0.1,0.2,0.3,0.1,0.5,0.1c0.2-0.1,0.1-0.5-0.1-0.4l0.4-0.1
		c0.4-0.1,1.2-0.2,1.9-0.2c-0.2,0.1-0.1,0.5,0.1,0.4c0.2-0.1,0.1-0.5-0.1-0.4l1.2,0.3l-0.1-0.2l1.1,0.1l0.1-0.3
		c0,0.7,0.8,0.4,0.9,0.1c0.9,0.1,4.4,0.1,5.2,0.1c0,0,0.7,0,0.8,0l0.2-0.1c3.3-1-0.8-6.9,3.7-8.3c1.4-0.4,2.9-0.5,4.4-0.5
		c0.9,0.8,2.4,1.6,2.9,3c0.2,0.8,0.4,1.2,0.3,2.3l-0.5,22.4c-0.1,4.6,0.6,7.6,1.9,11.5c0.2,0.6,0.9,3,1.3,3.5c0.1,0.4,0.8,1.7,1.1,2
		c0.1,0.2,0.3,0.3,0.3,0.3l0.2-0.1l0.3-0.3c0.3-0.3,1.6-1.8,1.7-2.3c1.5-2.2,4.5-9.8,6.1-12.3c3.8-9.8,7.7-22.3,4.4-32.9
		c-2-6.5-12.3-10.2-13-12.6l0.1-0.3c1,0.3,0.6,0.5,1.6,0.2l-0.1-0.2l-1.3-0.7c0.8-0.2,2.9,0.8,3.2,1.4c-0.1-0.4-0.2-0.6,0-0.8
		l-1.4-0.9l-0.1-0.4l0.8-0.2c-0.3-1.6-8.1-1.1-9.2-1l0.1-0.3c-0.2,0.1-0.4,0.1-0.7,0c0.2-0.1,0.3,0.3,0.1,0.4
		c-0.2,0.1-0.3-0.3-0.1-0.4c-0.4,0.1-0.7,0-0.9-0.1l-0.6,0.2c-1.6,0.5-2.9,1.1-4.5,1.6c0.2-0.1,0.5,0.1,0.7,0.2l-0.2,0.1
		c-1,0.3-2.2,0.5-3.2,0.8l-0.6,0.2l0.3,0.1l-1.6,0.5l0.1,0.2c-9.6,5.4-14.5,13.8-22.7,20.5c-11.4,16.7-20.3,38.1-13.9,58.5
		c2.3,7.3,6.5,13.1,13.1,17.1c-0.2,0.1-0.5-0.1-0.7,0l-0.2,0.1c3,2.7,9,2.6,12.6,1.5c5.1-1.6,10.5-5,14.8-8.5l29.1-23.8l0.1,0.2
		c0.4,1.4-3.7,9.6-5.2,10.9c-0.1,0.3-0.4,0.1-0.5-0.1l0.1,0.4c-0.6,0.2-0.7,0.6-0.5,1c-3.4,7.1-9.7,18.6-18,21.2l-0.2,0.1l0.1-0.3
		l-0.2,0.1c-1,0.3-1.7,1.4-2.5,1.6l-0.2,0.1l-0.5-0.3c0,0-0.5,0.4-0.7,0.4l-0.3,0.5c0,0-0.5-0.1-0.7,0l-0.4,0.1
		c-0.1,0.3-0.9,0.5-0.9,0.5l0.2,0.6c-0.1-0.2-0.3-0.1-0.5-0.1c0.2-0.1,0-0.7-0.2-0.6c-0.2,0.1,0,0.7,0.2,0.6L268.5,288.8z
		 M250.8,251.6c1.2-1,3.4-5,3.6-5.2l11.2-23.6c0.6-1.7,3.2-6.2,2.8-7.8c-9.4,3-20.1,28.3-17.6,36.4L250.8,251.6z"/>
</g>
<g>
	<path class="st0" d="M328.1,376.3l0.2-0.2c0.2,0.4,0.6,1.2,1.2,0.8l5.8,3.9c0.8,0.6,1.4,2.3,1.4,3.5c0,1-1.4,2.1-2.5,2.1
		c-0.8,0-1.6-0.6-2.5-0.6c-7.2,0-19.4,13.8-19.4,20.4c0,7.8,21.8,9.3,23.3,20.4c0.4,3.5-1.9,7.2-4.3,9.3l-9.3,7.8l-15.7,11.1v0.4
		c3.9,1.2,9.3,4.9,9.3,9.9c0,4.3-6.6,11.7-8.2,14.2l-0.2,0.4l-8,12.6c-2.3,3.7-2.7,8.4-2.7,12.8c0,8.4,4.5,11.3,12.4,11.3
		c5.6,0,11.1-0.8,16.1-3.7v0.2c0,6.4-14.2,12-19.4,12c-12.4,0-20.8-11.7-20.8-23.3c0-6,1.6-12.4,5.2-17.5l13-19.2
		c0.6-0.8,1-1.4,1-2.3c0-1.9-8.2-4.5-8.2-9.5c0-10.7,28.6-14,28.6-26.4c0-0.6,0-1.2-0.6-1.6c-4.1-1.9-8.4-3.7-12-6.4l0.2-0.2
		l-0.6-0.2v0.2c-5.4-3.9-9.3-9.1-9.3-16.9c0-9.9,11.5-27.6,22.1-27.6h1.4l0.4,0.2l-0.2,0.4c0.8-0.2,1.4,0.4,1.9,1l-0.2,0.2l0.2,0.4
		c0-0.2,0-0.4,0.2-0.4l0.2,0.2c-0.2,0-0.2-0.4,0-0.4s0.2,0.4,0,0.4c0,0.2-0.2,0.2-0.2,0.2H328.1z"/>
</g>
<g>
	<path class="st0" d="M802.7,498.8c0.2,0.7,4.9,8.4,5.1,9.1l0.9,0.5l-0.3,1.6l0.2,0.7c0.2,0.7,2.1-0.7,2.5,0.7
		c4.8,15.3-15.1,34.5-37,23C746.5,475.2,798.3,501.7,802.7,498.8z"/>
</g>
<g>
	<path class="st0" d="M72.1,629.3c2.5-2.5,4.9-4.9,6.7-7.3c10.1-7,21.4-12.6,33.6-12.6c9.1,0,22.8,7,22.8,17.5
		c0,14.4-11.9,22.4-15.8,34.7c-1.8,2.1-9.5,11.5-10.9,13.7l-1.8,2.1l2.4,1.8c-0.3,0-0.3,0.3,0,0.3c1.1,0.7,2.5,1.4,3.2,1.4l-1.4-1
		h0.7c3.5,0,5.6,3.8,7.7,7c-0.4,0-0.4,0.7,0,0.7c0,0,0.4,0,0.4-0.4l0.7,1.4c-0.3,0-0.3,0.7,0,0.7c0.7,0.7,1.1,1.8,1.8,2.1v8.1
		c-4.2,9.8-10.1,18.9-19.3,25.2l-23.8,22c-4.2,3.9-9.1,7.7-15.1,8.4c0.3-0.3,0.3-0.7,0-0.7c-0.4,0-0.4,0.4-0.4,0.7
		c-0.7,0-1.1,0.4-1.8,0.4h-2.5l0.7-0.4v-0.7l-2.5-0.3v0.3l0.7,0.7h-0.7c-0.4-0.3-1-0.7-1.4-0.7H57c-0.7-0.3-1.8-1.8-2.8-1.4
		l-1.1-0.7c0.4,0,0.4,0.7,0,0.7c-0.3,0-0.3-0.7,0-0.7l-0.3-0.4c0.3,0,0.3-1,0-1c-0.4,0-0.4,1,0,1l-1.8-1l1.4,1.4h-0.4
		c-1-0.4-2.1-2.5-3.1-2.5l2.4,2.8v0.4c-6.3-4.6-11.9-11.9-11.9-20.3c0-4.5,0.7-9.5,2.1-14c2.8-7,8-17.2,13-23.1l20.3-24.5l-2.5-1.8
		l-4.2-4.2c0.4,0,0.4-0.7,0-0.7c-0.3,0-0.3,0.3-0.3,0.7l-13.3-13.7l-0.4-2.1v1.4c-1.1-0.3-2.5-2.5-2.5-3.5l0.4-0.3l5.6-4.9
		c-0.4,0-0.4,1,0,1s0.4-1,0-1c0,0,0,0.3,0.4,0.3s0.4-0.7,0-0.7l0.4-0.4c0,0,0.3,0.4,0.7,0.4c0,0,0.4,0,0.4-0.4c0.4,0,0.4-0.7,0-0.7
		l0.4-0.3c0,0,0,0.3,0.4,0.3s0.4-0.7,0-0.7h0.4v-0.3l11.2-9.8h0.3C72.1,629.6,72.4,629.3,72.1,629.3z M66.5,731.5h0.4
		c10.9,0,25.9-21,25.9-32.2v-2.8c0-0.3-0.4-1.8-0.4-1.8H92l-2.5,2.5l-3.9,4.5L68.6,728C68.2,728.7,67.5,730.8,66.5,731.5z
		 M77.7,659.4l3.9,2.5l0.7,0.3h0.4c1.8,0,5.6-5.3,5.9-5.9c6.3-7,19.3-18.9,23.5-29.4h-0.4c-10.5,0-34.7,17.2-34.7,29.4
		C77,657.3,77.3,658.3,77.7,659.4z"/>
</g>
<g>
	<path class="st0" d="M454.7,224.2c2,0,5,1.6,5,3.8c0,1.6-1.4,2.6-2.4,3.6l-14.8,12.8l-49,50.6c-5.2,5.6-12.6,15.4-12.6,23.8v1.6
		c0.4,1.4,1,1.8,2.4,1.8s2.4-0.8,3.8-0.8c0,2-2.6,4.2-4.4,4.2c-5.2,0-8.8-4.8-8.8-9.6c0-1.8,0.2-3.8,0.8-5.6
		c3-8.6,8.2-16.2,14.4-22.6l34.2-35.8l27.6-24.6V227l-13.2,2.6l-35,15.4c-6.2,2.8-7.4,21.4-20.2,21.4c-6,0-9.2-6.6-9.2-11.8
		c0-6.6,11.2-22.6,17-22.6c2.4,0,9.4,4,9.4,6c0,0.8-1.4,1.8-1.4,2.2c4.6,0,8-1,13-2.2c0.4-0.2,1-0.4,1.6-0.4l26-9.2l12.6-3.6
		l0.4-0.4c0.2,0,0.4,0.2,0.6,0.2h0.4C453.5,224.6,454.1,224.2,454.7,224.2z M382.1,256.2c2,0,8.6-7.4,8.6-9.8V246h-0.2
		c-0.2,0-8.8,7.8-8.8,10v0.2H382.1z M430.3,278.8c1,0,2.6,2,3.2,1.6l7.4,5.4l0.6,0.6v0.2c0,1.8-2.8,1.6-3.4,2.8
		c2.4,3.4,7.8,2,7.8,7.8c0,9.8-22.8,24.6-30.8,24.6c-6.4,0-13.8-5.6-13.8-12.2C401.3,299,422.1,278.8,430.3,278.8z M428.9,294.6
		h-0.2c-3.4,0-14.8,11.4-14.8,15.4C419.7,310,428.9,300.6,428.9,294.6z"/>
</g>
<path class="st0" d="M140.7,58.3c5.8,0,13.4,9.4,16.7,13.8v0.4c0,4.4-8,8-11.3,9.8l-19.6,15.3c-6.9,8.4-20,11.6-26.9,20.7l0.4,0.4
	c2.9,1.1,10.9,2.5,12,2.5c5.1,4.4,50.5,12,50.5,22.2c0,3.3-6.9,3.6-9.1,3.6c-10.2,0-21.4-2.9-31.6-5.4l-28.7-4.4
	c-11.6-4.7-22.9-10.2-22.9-25.1c0-5.4,3.6-11.6,8.4-14.5l21.4-13.1C113.5,79.4,126.9,58.3,140.7,58.3z"/>
<path class="st0" d="M233,80.1c-13.1-6.5-26.1-16.3-26.1-29.1c8,0,18.5,10.5,25.4,13.4c11.3,4.4,25.1,5.4,36.3,6.9
	c6.9-1.1,17.1,8,20.7,12.7c-0.4,1.1,0.7,3.3,0.7,4.4c0,5.1-7.6,8-11.3,9.8l-37.4,36c-2.5,2.9-10.9,14.5-13.8,14.5h-0.7
	c0,1.8-6.9,5.4-8.7,5.4c-4,0-8.4-6.5-8.4-10.5c0-24.7,43.9-47.2,43.9-54.8v-0.7c-1.5-0.4-3.3-0.7-4.7-1.5c0.4,0,0.4-0.7,0-0.7
	s-0.4,0.7,0,0.7C244.3,85.2,238.8,83,233,80.1z"/>
</svg>
